<svg
    class="img-fluid"
    id="outputsvg"
    xmlns="http://www.w3.org/2000/svg"
    style="
      /* transform: matrix(1, 0, 0, 1, 9, 27); */
      /* transform-origin: 50% 50%; */
      cursor: move;
      max-height: none;
      transition: none;
    "
    width="24"
    height="24"
    viewBox="0 0 10000 10000"
  >
    <g id="l3BFWJLE3ueCHmgtji0Zq7u" fill="rgb(255,255,255)" style="transform: none">
      <g style="transform: none">
        <path
          id="pe28ozdtM"
          d="M0 5000 l0 -5000 5000 0 5000 0 0 5000 0 5000 -5000 0 -5000 0 0 -5000z m4550 3080 l0 -430 -858 0 c-883 0 -988 -4 -1177 -41 -244 -48 -403 -127 -540 -265 -170 -171 -269 -402 -329 -766 -36 -219 -46 -370 -46 -696 0 -513 50 -801 182 -1054 117 -225 359 -401 658 -479 210 -54 167 -52 1173 -56 l937 -4 0 -430 0 -430 -1002 4 c-1052 5 -1102 6 -1363 53 -646 115 -1072 398 -1365 908 -180 313 -290 684 -342 1151 -20 185 -17 751 5 935 84 678 273 1132 617 1481 243 245 533 399 910 482 263 58 386 63 1588 65 l952 2 0 -430z m4845 -1060 l0 -1490 -1229 0 c-1116 0 -1228 1 -1222 16 3 9 6 200 6 425 l0 409 710 0 710 0 0 640 0 640 -562 0 c-483 0 -590 -3 -753 -20 -286 -29 -360 -47 -523 -128 -122 -60 -221 -140 -278 -224 -16 -23 -34 -49 -41 -55 -24 -27 -53 -82 -88 -173 -80 -203 -95 -248 -112 -325 l-18 -80 -578 -3 -578 -2 7 52 c13 100 52 249 130 508 35 114 156 362 236 482 106 161 257 322 393 423 22 16 46 35 53 42 13 12 149 95 232 140 82 45 276 111 450 153 58 14 261 40 381 49 63 4 690 9 1394 10 l1280 1 0 -1490z m-2750 -885 c4 -129 4 -318 0 -419 l-7 -183 -931 -5 c-711 -3 -932 -7 -935 -16 -2 -8 -27 -12 -67 -12 -35 0 -67 -4 -70 -10 -3 -5 -15 -10 -26 -10 -25 0 -183 -44 -262 -72 -32 -12 -104 -51 -160 -88 -115 -75 -200 -168 -257 -280 -19 -36 -42 -76 -52 -89 -18 -24 -58 -143 -99 -298 l-21 -83 -580 0 c-547 0 -579 1 -574 18 3 9 15 67 26 127 32 166 54 247 110 395 48 129 99 249 110 260 6 6 33 51 70 120 87 159 313 408 472 520 100 70 253 156 330 185 121 45 133 50 138 56 22 28 371 95 560 109 58 4 580 8 1161 8 l1057 2 7 -235z m-648 -950 c20 -93 65 -235 75 -235 4 0 8 -5 8 -11 0 -6 21 -53 47 -106 32 -67 69 -120 122 -181 163 -184 361 -277 711 -334 42 -7 490 -13 1250 -17 l1185 -6 3 -422 2 -423 -1232 1 c-678 0 -1282 4 -1343 8 -215 16 -600 84 -630 112 -5 5 -18 9 -30 9 -12 0 -25 4 -30 9 -6 5 -46 22 -89 36 -68 23 -176 74 -251 118 -42 25 -215 146 -247 174 -111 94 -275 289 -343 408 -15 28 -31 52 -35 55 -9 6 -60 108 -91 180 -13 30 -26 57 -30 60 -11 9 -76 191 -104 294 -14 54 -30 106 -35 115 -11 20 -50 178 -50 203 0 17 24 18 562 16 l563 -3 12 -60z m-2260 -2070 c46 -190 85 -320 115 -379 27 -52 104 -163 142 -204 94 -102 270 -217 403 -264 32 -11 65 -24 74 -28 29 -16 222 -50 369 -65 117 -12 307 -15 978 -15 l832 0 -2 -422 -3 -423 -1020 0 c-778 0 -1045 3 -1125 13 -134 17 -355 58 -445 83 -38 11 -88 25 -110 31 -250 68 -546 240 -735 428 -111 111 -240 280 -305 400 -25 47 -54 99 -64 115 -10 17 -35 75 -56 130 -21 55 -46 118 -55 140 -30 67 -58 168 -95 339 -19 91 -35 167 -35 170 0 4 253 5 562 4 l563 -3 12 -50z"
        ></path>
      </g>
    </g>
    <g id="l7LT88I9nmqjn2MmM6C7N3o" fill="rgb(0,0,0)" style="transform: none">
      <g style="transform: none">
        <path
          id="p5hLBxibB"
          d="M2430 8529 c-185 -10 -314 -26 -450 -56 -377 -83 -667 -237 -910 -482 -344 -349 -533 -802 -617 -1481 -22 -184 -26 -807 -5 -995 52 -467 162 -838 342 -1151 293 -510 719 -793 1365 -908 262 -47 308 -48 1393 -53 l1032 -4 0 460 0 460 -937 4 c-1006 4 -963 2 -1173 56 -299 78 -541 254 -658 479 -129 248 -182 544 -182 1024 0 296 11 452 46 666 60 364 159 595 329 766 137 138 296 217 540 265 189 37 294 41 1177 41 l858 0 0 460 0 460 -1007 -2 c-555 0 -1069 -5 -1143 -9z"
        ></path>
        <path
          id="pERfhxdgI"
          d="M6691 8529 c-120 -9 -323 -35 -381 -49 -174 -42 -368 -108 -450 -153 -83 -45 -219 -128 -232 -140 -7 -7 -31 -26 -53 -42 -304 -224 -556 -616 -666 -1035 -11 -41 -31 -109 -44 -150 -12 -41 -30 -120 -39 -175 -9 -55 -19 -115 -22 -133 l-5 -32 613 2 613 3 18 80 c33 149 154 448 200 498 7 6 25 32 41 55 57 84 156 164 278 224 163 81 237 99 523 128 161 17 270 20 723 20 l532 0 0 -610 0 -610 -712 0 -713 0 0 -455 0 -455 1255 0 1255 0 0 1520 0 1520 -1310 -1 c-720 -1 -1361 -6 -1424 -10z"
        ></path>
        <path
          id="pWAjxYLPo"
          d="M4390 6390 c-189 -14 -538 -81 -560 -109 -5 -6 -17 -11 -138 -56 -77 -29 -230 -115 -330 -185 -159 -112 -385 -361 -472 -520 -37 -69 -64 -114 -70 -120 -31 -31 -164 -398 -194 -536 -40 -182 -64 -308 -59 -316 2 -5 278 -8 612 -8 l609 0 21 83 c41 155 81 274 99 298 10 13 33 53 52 89 57 112 142 205 257 280 56 37 128 76 160 88 79 28 237 72 262 72 11 0 23 5 26 10 3 6 35 10 70 10 40 0 65 4 67 12 3 9 225 13 940 16 l935 5 -1 448 -1 449 -1090 -2 c-599 0 -1137 -4 -1195 -8z"
        ></path>
      </g>
    </g>
    <g id="l3JDQBi4iBX6xIHnNrE3wkY" fill="rgb(204,0,0)" style="transform: none">
      <g style="transform: none">
        <path
          id="p2VEVGUKm"
          d="M4826 5233 c7 -62 42 -213 54 -234 5 -9 21 -61 35 -115 28 -103 93 -285 104 -294 4 -3 17 -30 30 -60 31 -72 82 -174 91 -180 4 -3 20 -27 35 -55 68 -119 232 -314 343 -408 32 -28 205 -149 247 -174 75 -44 183 -95 251 -118 43 -14 83 -31 89 -36 5 -5 18 -9 30 -9 12 0 25 -4 30 -9 17 -16 175 -51 335 -76 85 -13 166 -27 180 -31 14 -4 638 -9 1388 -11 l1362 -4 -2 453 -3 453 -1185 6 c-760 4 -1208 10 -1250 17 -350 57 -548 150 -711 334 -53 61 -90 114 -122 181 -26 53 -47 100 -47 106 0 6 -4 11 -8 11 -10 0 -55 142 -75 235 l-12 60 -598 3 -597 2 6 -47z"
        ></path>
        <path
          id="pyzXf9n1H"
          d="M2567 3163 c22 -156 96 -454 133 -538 9 -22 34 -85 55 -140 21 -55 46 -113 56 -130 10 -16 39 -68 64 -115 65 -120 194 -289 305 -400 189 -188 485 -360 735 -428 22 -6 72 -20 110 -31 90 -25 311 -66 445 -83 80 -10 352 -13 1155 -13 l1050 0 3 453 2 452 -832 0 c-671 0 -861 3 -978 15 -147 15 -340 49 -369 65 -9 4 -42 17 -74 28 -132 47 -307 161 -403 264 -51 53 -141 193 -163 253 -11 30 -32 96 -46 147 -14 51 -30 109 -36 128 -5 19 -11 49 -12 65 -1 17 -6 33 -12 37 -5 4 -276 8 -602 8 l-592 0 6 -37z"
        ></path>
      </g>
    </g>
  </svg>